<?xml version="1.0" encoding="UTF-8"?>
<!DOCTYPE svg PUBLIC "-//W3C//DTD SVG 1.1//EN" "http://www.w3.org/Graphics/SVG/1.1/DTD/svg11.dtd">
<svg version="1.1" xmlns="http://www.w3.org/2000/svg" xmlns:xlink="http://www.w3.org/1999/xlink" x="0" y="0" width="240.368" height="182.691" viewBox="0, 0, 240.368, 182.691">
  <g id="Layer_1">
    <path d="M166.206,0 C174.413,0 188.247,0.482 207.704,1.446 L227.516,2.652 C230.193,2.814 232.335,2.975 233.941,3.133 C234.652,3.133 235.28,3.217 235.816,3.375 L236.619,3.375 C236.795,3.375 237.062,3.457 237.421,3.615 C237.597,3.615 237.778,3.699 237.958,3.857 C238.669,4.339 239.25,4.905 239.698,5.545 C240.142,6.188 240.368,6.912 240.368,7.715 C240.368,8.039 240.321,8.317 240.233,8.559 C240.142,8.799 240.1,9.082 240.1,9.403 C239.919,9.884 239.652,10.449 239.296,11.09 L236.886,16.152 L228.855,31.582 C219.393,49.746 214.129,60.029 213.059,62.44 C212.524,63.567 211.674,64.332 210.516,64.73 C209.353,65.133 208.194,65.133 207.034,64.73 C205.872,64.332 205.069,63.608 204.625,62.56 C204.177,61.517 204.132,60.511 204.491,59.547 C206.453,55.37 211.808,44.841 220.554,27.965 L225.374,18.804 C204.132,26.681 183.114,36.162 162.324,47.252 C141.528,58.341 121.402,70.678 101.95,84.258 C82.494,97.842 64.602,112.947 48.271,129.582 C31.939,146.217 18.687,163.213 8.512,180.571 C7.977,181.535 7.087,182.175 5.835,182.5 C4.589,182.819 3.426,182.74 2.355,182.258 C1.283,181.776 0.572,180.971 0.213,179.847 C-0.142,178.722 -0.054,177.677 0.481,176.713 C11.014,158.715 24.71,141.153 41.577,124.037 C58.444,106.919 76.917,91.371 96.997,77.387 C117.078,63.404 137.781,50.789 159.111,39.537 C180.438,28.29 201.903,18.645 223.501,10.607 C218.682,10.287 213.235,9.967 207.169,9.643 C187.893,8.679 174.237,8.197 166.206,8.197 C164.955,8.197 163.885,7.797 162.993,6.991 C162.098,6.188 161.654,5.224 161.654,4.097 C161.654,2.975 162.098,2.011 162.993,1.206 C163.885,0.403 164.955,0 166.206,0" fill="#3B393B"/>
  </g>
</svg>
