<?xml version="1.0" encoding="UTF-8"?>
<!DOCTYPE svg PUBLIC "-//W3C//DTD SVG 1.1//EN" "http://www.w3.org/Graphics/SVG/1.1/DTD/svg11.dtd">
<svg version="1.1" xmlns="http://www.w3.org/2000/svg" xmlns:xlink="http://www.w3.org/1999/xlink" x="0" y="0" width="200.211" height="164.971" viewBox="0, 0, 200.211, 164.971">
  <g id="Layer_1">
    <path d="M140.774,0.361 C141.309,0.361 143.451,0.282 147.2,0.119 L158.177,0.119 C161.566,-0.04 165.761,-0.04 170.76,0.119 C178.257,0.282 184.234,0.763 188.698,1.566 C191.551,2.21 193.785,2.934 195.391,3.736 C198.244,5.023 199.85,6.87 200.211,9.281 C200.211,9.764 200.119,10.406 199.943,11.21 C199.943,11.691 199.85,12.257 199.675,12.896 C199.315,13.861 198.872,15.307 198.336,17.236 L194.052,29.772 C189.944,42.31 187.715,49.783 187.359,52.193 C187.179,53.159 186.556,54.001 185.486,54.724 C184.414,55.447 183.297,55.73 182.139,55.569 C180.976,55.41 179.997,54.846 179.193,53.881 C178.39,52.917 178.076,51.874 178.257,50.746 C178.792,48.179 181.202,40.464 185.486,27.603 L189.501,15.066 C190.036,13.137 190.48,11.691 190.84,10.727 C189.944,10.406 188.606,10.003 186.824,9.521 C182.895,8.882 177.453,8.479 170.492,8.316 C165.493,8.158 161.297,8.116 157.909,8.196 C154.517,8.278 150.948,8.358 147.2,8.438 C143.451,8.519 141.309,8.557 140.774,8.557 C139.523,8.557 138.452,8.158 137.562,7.352 C136.666,6.549 136.223,5.584 136.223,4.458 C136.223,3.336 136.666,2.372 137.562,1.566 C138.452,0.763 139.523,0.361 140.774,0.361 z M0.216,159.475 C6.641,143.242 16.234,127.493 28.997,112.224 C41.756,96.955 56.305,83.255 72.637,71.118 C88.968,58.985 105.835,48.179 123.238,38.693 C140.64,29.212 158.352,21.094 176.383,14.342 C177.629,14.024 178.834,14.064 179.997,14.462 C181.155,14.868 181.959,15.59 182.406,16.632 C182.85,17.681 182.85,18.723 182.406,19.767 C181.959,20.815 181.202,21.576 180.13,22.058 C162.281,28.65 144.832,36.605 127.789,45.924 C110.742,55.249 94.323,65.776 78.527,77.507 C62.731,89.241 48.717,102.422 36.493,117.045 C24.265,131.671 15.029,146.781 8.783,162.367 C8.423,163.333 7.666,164.055 6.508,164.538 C5.344,165.02 4.186,165.098 3.027,164.779 C1.864,164.456 1.019,163.773 0.484,162.73 C-0.052,161.682 -0.144,160.598 0.216,159.475" fill="#3B393B"/>
  </g>
</svg>
